<mxfile host="app.diagrams.net" modified="2023-08-03T11:40:14.541Z" agent="Mozilla/5.0 (Macintosh; Intel Mac OS X 10_15_7) AppleWebKit/537.36 (KHTML, like Gecko) Chrome/115.0.0.0 Safari/537.36" version="21.3.0" etag="8hO-3UIKiYLi7LJviIk1" type="github">
  <diagram name="第 1 页" id="30sCFwIFxoQU3jxRLjra">
    <mxGraphModel>
      <root>
        <mxCell id="0" />
        <mxCell id="1" parent="0" />
      </root>
    </mxGraphModel>
  </diagram>
</mxfile>
